<?xml version="1.0" encoding="utf-8"?>
<!-- Generator: Adobe Illustrator 16.0.0, SVG Export Plug-In . SVG Version: 6.00 Build 0)  -->
<!DOCTYPE svg PUBLIC "-//W3C//DTD SVG 1.1//EN" "http://www.w3.org/Graphics/SVG/1.1/DTD/svg11.dtd">
<svg version="1.1" id="Capa_1" xmlns="http://www.w3.org/2000/svg" xmlns:xlink="http://www.w3.org/1999/xlink" x="0px" y="0px"
	 width="30px" height="30px" viewBox="0 0 30 30" enable-background="new 0 0 30 30" xml:space="preserve">
<g>
	<path id="path4423" fill="#5C5C5C" d="M8.838,13.5v4.844H7.296v-6.089l3.184,0.003c1.353,0,1.813,0.954,1.813,1.82v4.266h-1.54
		v-4.258c0-0.362-0.188-0.586-0.641-0.586H8.838L8.838,13.5z M19.325,13.427c-0.527,0-0.936,0.271-1.105,0.639
		c-0.101,0.221-0.136,0.39-0.147,0.661h2.373C20.414,14.066,20.114,13.427,19.325,13.427 M18.072,15.777
		c0,0.788,0.49,1.369,1.366,1.369c0.681,0,1.02-0.189,1.413-0.581l0.953,0.909c-0.61,0.603-1.25,0.968-2.378,0.968
		c-1.477,0-2.889-0.805-2.889-3.15c0-2.005,1.233-3.14,2.854-3.14c1.644,0,2.593,1.329,2.593,3.068v0.557H18.072 M15.236,18.336
		c-1.257,0-1.79-0.874-1.79-1.737v-6.002h1.54v1.659h1.162V13.5h-1.162v3.002c0,0.354,0.167,0.55,0.534,0.55h0.627v1.284H15.236
		 M5.924,11.414H4.372V9.938h1.553V11.414L5.924,11.414z M5.928,18.408c-1.163-0.111-1.559-0.817-1.559-1.631l0.002-4.522h1.557
		V18.408L5.928,18.408z M24.435,18.277c-1.16-0.111-1.554-0.815-1.554-1.628v-6.92h1.554V18.277z M29.868,10.729
		C28.459,3.863,15.13,3.428,6.539,8.658v0.577c8.583-4.411,20.755-4.384,21.863,1.94c0.371,2.091-0.808,4.271-2.912,5.524v1.639
		C28.024,17.412,30.622,14.407,29.868,10.729 M14.25,22.742C8.321,23.29,2.143,22.429,1.278,17.796
		c-0.423-2.284,0.617-4.705,1.998-6.208v-0.804c-2.485,2.179-3.833,4.938-3.057,8.196c0.991,4.181,6.294,6.549,14.388,5.762
		c3.203-0.313,7.395-1.342,10.308-2.941v-2.272C22.271,21.103,17.895,22.404,14.25,22.742"/>
	<path id="path4425" fill="#5C5C5C" d="M26.231,10.188c0-0.076-0.044-0.1-0.146-0.1h-0.097v0.213c0.015,0,0.085,0.002,0.097,0.002
		c0.102,0,0.146-0.033,0.146-0.104V10.188L26.231,10.188z M26.383,10.717h-0.115c-0.011,0-0.02-0.006-0.024-0.015l-0.157-0.266
		c-0.002-0.006-0.016-0.012-0.021-0.012h-0.071v0.264c0,0.014-0.01,0.029-0.027,0.029h-0.104c-0.013,0-0.026-0.015-0.026-0.029
		V10.02c0-0.039,0.016-0.055,0.048-0.06c0.037-0.005,0.137-0.008,0.19-0.008c0.191,0,0.307,0.057,0.307,0.236v0.012
		c0,0.111-0.055,0.17-0.141,0.199l0.162,0.275c0.001,0.005,0.005,0.013,0.005,0.02C26.407,10.705,26.401,10.717,26.383,10.717
		 M26.109,9.832c-0.283,0-0.513,0.233-0.513,0.515s0.229,0.512,0.513,0.512c0.281,0,0.514-0.23,0.514-0.512
		S26.391,9.832,26.109,9.832 M26.109,10.965c-0.344,0-0.619-0.278-0.619-0.618c0-0.34,0.275-0.618,0.619-0.618
		c0.341,0,0.62,0.278,0.62,0.618C26.729,10.688,26.45,10.965,26.109,10.965"/>
</g>
</svg>
