<?xml version="1.0" encoding="utf-8"?>
<!-- Generator: Adobe Illustrator 16.0.0, SVG Export Plug-In . SVG Version: 6.00 Build 0)  -->
<!DOCTYPE svg PUBLIC "-//W3C//DTD SVG 1.1//EN" "http://www.w3.org/Graphics/SVG/1.1/DTD/svg11.dtd">
<svg version="1.1" id="Capa_1" xmlns="http://www.w3.org/2000/svg" xmlns:xlink="http://www.w3.org/1999/xlink" x="0px" y="0px"
	 width="30px" height="19.633px" viewBox="0 0 30 19.633" enable-background="new 0 0 30 19.633" xml:space="preserve">
<g>
	<path id="path4423" fill="#FFFFFF" d="M8.838,8.391v4.844H7.296V7.146l3.184,0.003c1.353,0,1.813,0.954,1.813,1.82v4.266h-1.54
		V8.977c0-0.362-0.188-0.586-0.641-0.586H8.838L8.838,8.391z M19.325,8.318c-0.527,0-0.936,0.271-1.105,0.639
		c-0.101,0.221-0.136,0.39-0.147,0.661h2.373C20.414,8.957,20.114,8.318,19.325,8.318 M18.072,10.668
		c0,0.788,0.49,1.369,1.366,1.369c0.681,0,1.02-0.189,1.413-0.581l0.953,0.909c-0.61,0.603-1.25,0.968-2.378,0.968
		c-1.477,0-2.889-0.805-2.889-3.15c0-2.005,1.233-3.14,2.854-3.14c1.644,0,2.593,1.329,2.593,3.068v0.557H18.072 M15.236,13.227
		c-1.257,0-1.79-0.874-1.79-1.737V5.487h1.54v1.659h1.162v1.245h-1.162v3.002c0,0.354,0.167,0.55,0.534,0.55h0.627v1.284H15.236
		 M5.924,6.305H4.372V4.83h1.553V6.305L5.924,6.305z M5.928,13.299c-1.163-0.111-1.559-0.817-1.559-1.631l0.002-4.522h1.557V13.299
		L5.928,13.299z M24.435,13.168c-1.16-0.111-1.554-0.815-1.554-1.628V4.62h1.554V13.168z M29.868,5.62
		C28.459-1.246,15.13-1.681,6.539,3.549v0.577c8.583-4.411,20.755-4.384,21.863,1.94c0.371,2.091-0.808,4.271-2.912,5.524v1.639
		C28.024,12.303,30.622,9.298,29.868,5.62 M14.25,17.634C8.321,18.182,2.143,17.32,1.278,12.687
		c-0.423-2.284,0.617-4.705,1.998-6.208V5.674c-2.485,2.179-3.833,4.938-3.057,8.196c0.991,4.181,6.294,6.549,14.388,5.762
		c3.203-0.313,7.395-1.342,10.308-2.941v-2.273C22.271,15.994,17.895,17.296,14.25,17.634"/>
	<path id="path4425" fill="#FFFFFF" d="M26.231,5.08c0-0.076-0.044-0.1-0.146-0.1h-0.097v0.213c0.015,0,0.085,0.002,0.097,0.002
		c0.102,0,0.146-0.033,0.146-0.104V5.08L26.231,5.08z M26.383,5.608h-0.115c-0.011,0-0.02-0.006-0.024-0.015l-0.157-0.266
		c-0.002-0.006-0.016-0.012-0.021-0.012h-0.071v0.264c0,0.014-0.01,0.029-0.027,0.029h-0.104c-0.013,0-0.026-0.015-0.026-0.029
		V4.911c0-0.039,0.016-0.055,0.048-0.06c0.037-0.005,0.137-0.008,0.19-0.008c0.191,0,0.307,0.057,0.307,0.236v0.012
		c0,0.111-0.055,0.17-0.141,0.199l0.162,0.275c0.001,0.005,0.005,0.013,0.005,0.02C26.407,5.596,26.401,5.608,26.383,5.608
		 M26.109,4.723c-0.283,0-0.513,0.233-0.513,0.515s0.229,0.512,0.513,0.512c0.281,0,0.514-0.23,0.514-0.512
		S26.391,4.723,26.109,4.723 M26.109,5.856c-0.344,0-0.619-0.278-0.619-0.618c0-0.34,0.275-0.618,0.619-0.618
		c0.341,0,0.62,0.278,0.62,0.618C26.729,5.579,26.45,5.856,26.109,5.856"/>
</g>
</svg>
