<svg width="24" height="24" xmlns="http://www.w3.org/2000/svg">

 <g>
  <title>background</title>
  <rect fill="none" id="canvas_background" height="402" width="582" y="-1" x="-1"/>
 </g>
 <g>
  <title>Layer 1</title>
  <path stroke="null" fill="#5c5c5c" id="svg_2" d="m7.069751,20.435658l-3.966872,0l0,-13.222907l3.966872,0l0,13.222907zm14.545197,0l-3.966872,0l0,-7.063677c0,-1.840629 -0.655856,-2.756976 -1.955668,-2.756976c-1.030064,0 -1.683276,0.513049 -2.011204,1.540469c0,1.668731 0,8.280184 0,8.280184l-3.966872,0c0,0 0.052892,-11.900616 0,-13.222907l3.131184,0l0.241979,2.644581l0.081982,0c0.813209,-1.322291 2.11302,-2.218804 3.895468,-2.218804c1.355348,0 2.451527,0.376853 3.288537,1.323613c0.842299,0.948082 1.261465,2.220126 1.261465,4.006541l0,7.466975z"/>
  <ellipse stroke="null" fill="#5c5c5c" id="svg_4" ry="2.021005" rx="2.088372" cy="4.235695" cx="4.97553"/>
 </g>
</svg>