<svg width="18" height="22" xmlns="http://www.w3.org/2000/svg">
 <title/>
 <desc/>

 <g>
  <title>background</title>
  <rect fill="none" id="canvas_background" height="402" width="582" y="-1" x="-1"/>
 </g>
 <g>
  <title>Layer 1</title>
  <path fill="#ffffff" id="Shape" d="m16,2l-4.2,0c-0.4,-1.2 -1.5,-2 -2.8,-2c-1.3,0 -2.4,0.8 -2.8,2l-4.2,0c-1.1,0 -2,0.9 -2,2l0,16c0,1.1 0.9,2 2,2l14,0c1.1,0 2,-0.9 2,-2l0,-16c0,-1.1 -0.9,-2 -2,-2l0,0zm-7,0c0.6,0 1,0.4 1,1c0,0.6 -0.4,1 -1,1c-0.6,0 -1,-0.4 -1,-1c0,-0.6 0.4,-1 1,-1l0,0zm7,18l-14,0l0,-16l2,0l0,3l10,0l0,-3l2,0l0,16l0,0z"/>
 </g>
</svg>