<svg width="500" height="500" xmlns="http://www.w3.org/2000/svg">

 <g>
  <title>background</title>
  <rect fill="none" id="canvas_background" height="402" width="582" y="-1" x="-1"/>
 </g>
 <g>
  <title>Layer 1</title>
  <path id="svg_1" fill-rule="evenodd" fill="#ffffff" d="m48.212,332.496c45.608,111.475 172.898,164.815 284.284,119.293c111.475,-45.614 164.815,-172.893 119.293,-284.287c-45.614,-111.475 -172.899,-164.808 -284.287,-119.293c-111.478,45.615 -164.813,172.901 -119.29,284.287zm43.518,-17.808l58.33,-23.805c11.268,27.621 32.707,47.976 58.147,58.693l-24.347,58.054c-40.345,-16.896 -74.233,-49.235 -92.13,-92.942zm223.048,93.581l-23.896,-58.33c27.621,-11.269 47.968,-32.702 58.693,-58.238l58.055,24.442c-16.896,40.344 -49.243,74.228 -92.852,92.126zm93.491,-223.049l-58.33,23.894c-11.268,-27.619 -32.702,-47.965 -58.149,-58.69l24.347,-58.055c40.351,16.893 74.234,49.243 92.132,92.851zm-222.959,-93.49l23.807,58.328c-27.622,11.268 -47.972,32.705 -58.693,58.24l-58.059,-24.434c16.9,-40.345 49.247,-74.237 92.945,-92.134zm6.362,182.073c-13.177,-32.162 2.271,-68.957 34.523,-82.134c32.16,-13.174 68.963,2.274 82.135,34.437c13.174,32.25 -2.274,69.053 -34.438,82.219c-32.251,13.178 -69.05,-2.269 -82.22,-34.522z" clip-rule="evenodd"/>
 </g>
</svg>