<svg width="128" height="128" xmlns="http://www.w3.org/2000/svg">

 <g>
  <title>background</title>
  <rect fill="none" id="canvas_background" height="402" width="582" y="-1" x="-1"/>
 </g>
 <g>
  <title>Layer 1</title>
  <rect id="svg_1" width="128" height="128" fill-rule="evenodd" fill="none" clip-rule="evenodd"/>
  <path id="Youtube" fill-rule="evenodd" fill="#5c5c5c" d="m126.72,38.224c0,0 -1.252,-8.883 -5.088,-12.794c-4.868,-5.136 -10.324,-5.16 -12.824,-5.458c-17.912,-1.305 -44.78,-1.305 -44.78,-1.305l-0.056,0c0,0 -26.868,0 -44.78,1.305c-2.504,0.298 -7.956,0.322 -12.828,5.458c-3.836,3.912 -5.084,12.794 -5.084,12.794s-1.28,10.434 -1.28,20.863l0,9.781c0,10.433 1.28,20.863 1.28,20.863s1.248,8.883 5.084,12.794c4.872,5.136 11.268,4.975 14.116,5.511c10.24,0.991 43.52,1.297 43.52,1.297s26.896,-0.04 44.808,-1.345c2.5,-0.302 7.956,-0.326 12.824,-5.462c3.836,-3.912 5.088,-12.794 5.088,-12.794s1.28,-10.43 1.28,-20.864l0,-9.781c0,-10.429 -1.28,-20.863 -1.28,-20.863zm-75.936,42.496l-0.004,-36.219l34.584,18.172l-34.58,18.047z" clip-rule="evenodd"/>
 </g>
</svg>